<?xml version="1.0" encoding="UTF-8" standalone="no"?>
<!-- Created with Inkscape (http://www.inkscape.org/) -->

<svg
   width="100mm"
   height="100.00002mm"
   viewBox="0 0 100 100.00002"
   version="1.1"
   id="svg680"
   inkscape:version="1.2.2 (b0a8486541, 2022-12-01)"
   sodipodi:docname="logo-acceso-trasparente.svg"
   xmlns:inkscape="http://www.inkscape.org/namespaces/inkscape"
   xmlns:sodipodi="http://sodipodi.sourceforge.net/DTD/sodipodi-0.dtd"
   xmlns="http://www.w3.org/2000/svg"
   xmlns:svg="http://www.w3.org/2000/svg">
  <sodipodi:namedview
     id="namedview682"
     pagecolor="#ffffff"
     bordercolor="#000000"
     borderopacity="0.25"
     inkscape:showpageshadow="2"
     inkscape:pageopacity="0.0"
     inkscape:pagecheckerboard="0"
     inkscape:deskcolor="#d1d1d1"
     inkscape:document-units="mm"
     showgrid="false"
     inkscape:zoom="1.9224607"
     inkscape:cx="277.24884"
     inkscape:cy="201.82467"
     inkscape:window-width="2560"
     inkscape:window-height="1371"
     inkscape:window-x="0"
     inkscape:window-y="0"
     inkscape:window-maximized="1"
     inkscape:current-layer="layer1" />
  <defs
     id="defs677" />
  <g
     inkscape:label="Livello 1"
     inkscape:groupmode="layer"
     id="layer1"
     transform="translate(-21.040598,-46.914574)">
    <g
       id="g986">
      <path
         id="rect773"
         style="fill:#4286f5;fill-opacity:1;stroke-width:0.305567;stroke-linecap:square;stop-color:#000000"
         d="M 120.81152 20.344869 C 120.41844 20.73794 120.17607 21.281949 120.17607 21.884332 L 120.17607 52.111575 C 120.17607 53.316341 121.14621 54.286481 122.35098 54.286481 L 152.57822 54.286481 C 153.78299 54.286481 154.75313 53.316341 154.75313 52.111575 L 154.75313 21.884332 C 154.75313 20.679566 153.78299 19.709426 152.57822 19.709426 L 122.35098 19.709426 C 121.7486 19.709426 121.20459 19.951798 120.81152 20.344869 z M 134.60711 25.720015 C 134.66652 25.659296 134.71793 25.609063 134.76058 25.569467 L 135.30906 25.060454 L 135.52209 25.312951 C 135.90568 25.769105 137.32019 27.816597 137.37398 27.994311 C 137.41297 28.124362 137.30757 28.31036 136.95486 28.731338 C 135.07056 30.980277 133.99182 32.397043 133.74365 32.949603 C 133.64255 33.174734 133.6457 33.179056 134.56546 34.09881 L 135.48884 35.022195 L 136.14109 34.456179 C 136.49984 34.14495 137.38352 33.300719 138.10443 32.579811 L 139.41515 31.269094 L 140.06776 31.834745 C 141.01262 32.654401 141.76058 33.420566 141.73183 33.541198 C 141.71818 33.598686 140.99217 34.437899 140.11819 35.406238 C 138.68015 36.999515 138.53188 37.18871 138.559 37.392959 C 138.58482 37.587091 138.98774 38.004946 141.44498 40.385647 L 144.30064 43.152878 L 144.0043 43.429492 C 143.841 43.581477 143.31046 44.057567 142.82476 44.486981 L 142.82403 44.486981 C 141.82824 45.367089 140.82081 46.040056 139.75205 46.538745 L 139.02599 46.877478 L 138.4512 46.396967 C 136.67499 44.911424 130.27959 37.19037 128.58008 34.479565 C 128.05701 33.645192 128.05787 33.518312 128.59287 32.850943 C 131.0104 29.835245 133.71601 26.630788 134.60711 25.720015 z "
         transform="rotate(45)" />
      <path
         id="rect775"
         style="fill:#2ec031;fill-opacity:1;stroke-width:0.305567;stroke-linecap:square;stop-color:#000000"
         d="M 83.406937 -17.05971 C 83.013865 -16.666639 82.771127 -16.122995 82.771127 -15.520613 L 82.771493 14.706996 C 82.771493 15.911761 83.741269 16.881537 84.946033 16.881537 L 115.17364 16.881902 C 116.37841 16.881902 117.34855 15.911761 117.34855 14.706996 L 117.34818 -15.520613 C 117.34818 -16.725378 116.37841 -17.695153 115.17364 -17.695153 L 84.946033 -17.695519 C 84.343651 -17.695519 83.800007 -17.45278 83.406937 -17.05971 z M 91.436402 -7.3040587 C 91.62236 -7.4922537 91.76953 -7.6272485 91.846755 -7.6734858 C 92.016124 -7.7748875 92.201306 -7.7605623 92.590725 -7.6157514 C 93.208355 -7.386039 94.330351 -6.6791413 95.105825 -6.0309788 C 95.650378 -5.5758604 95.663127 -5.5566041 95.565873 -5.3451088 C 95.510859 -5.2254935 95.156083 -4.7790995 94.777323 -4.3526619 C 92.689583 -2.002108 91.702652 -0.13893541 91.719593 1.4200467 C 91.728549 2.2440281 92.060915 3.3902925 92.493161 4.0878873 C 92.629829 4.3084461 92.996551 4.7432973 93.30802 5.0540248 C 94.212042 5.955785 95.259641 6.3299634 96.381097 6.1517091 C 97.263746 6.011411 97.743473 5.737881 98.589255 4.8943417 C 98.998367 4.4863603 99.333053 4.1122302 99.333225 4.0626741 C 99.33338 4.0131344 99.007533 3.5906339 98.608987 3.1235767 C 97.10447 1.3604102 96.627557 0.77456171 96.627382 0.69032779 C 96.627127 0.57669595 98.663542 -1.5421087 98.921411 -1.6965144 C 99.033815 -1.7638202 99.229271 -1.7672802 99.371227 -1.7041879 C 99.655029 -1.578039 102.6089 0.60697993 104.1493 1.830034 C 105.20452 2.6678668 105.43558 2.9303858 105.46805 3.3285704 C 105.50022 3.7227236 104.75001 5.7103032 104.256 6.5401374 C 103.5058 7.8003052 102.01309 9.500578 100.91179 10.349146 C 99.639412 11.329513 98.071489 11.830431 96.404118 11.788852 C 93.773119 11.723242 91.426128 10.507406 89.634943 8.2820352 C 87.945152 6.1826316 87.282319 4.3960068 87.239696 1.8271107 C 87.195781 -0.81964974 87.785494 -2.5733839 89.579766 -5.1331724 C 89.974255 -5.6959704 90.878529 -6.7394742 91.436402 -7.3040587 z M 98.462459 -5.9564357 L 100.72433 -8.2183085 L 102.9862 -10.480181 L 103.58876 -10.663981 C 104.30863 -10.88328 105.01661 -10.864335 105.70666 -10.607708 C 106.83325 -10.188713 107.854 -9.2042087 108.12932 -8.2712925 C 108.32116 -7.6212464 108.27332 -6.571882 108.01896 -5.8501021 C 107.90931 -5.538904 107.81714 -5.270981 107.8136 -5.2544878 C 107.78565 -5.1239942 108.40661 -5.113655 110.46427 -5.2106388 C 113.36086 -5.3471492 114.3954 -5.3308576 114.52212 -5.1466925 C 114.71666 -4.8639901 113.74094 -2.6027896 113.18436 -2.0462094 C 112.95156 -1.8134025 112.6221 -1.8200786 109.95745 -2.1123482 C 107.99792 -2.3272815 107.67371 -2.3451562 107.67438 -2.2387792 C 107.6746 -2.2133517 108.02829 -1.917192 108.46037 -1.5806802 C 108.89252 -1.2442243 109.58567 -0.6646191 110.00093 -0.29298395 L 110.75587 0.38228922 L 110.32907 0.78642998 C 110.09444 1.0086105 109.37516 1.6809053 108.73041 2.2805815 C 108.08568 2.8802392 107.49476 3.3862837 107.41714 3.4045751 C 107.3089 3.4300804 107.12732 3.2713366 106.63845 2.7238208 C 106.28785 2.3311762 104.80242 0.75276695 103.33736 -0.78336089 C 101.8723 -2.3194873 100.17586 -4.1116538 99.567817 -4.7663033 L 98.462459 -5.9564357 z M 102.57768 -7.0110019 C 102.23746 -6.6707792 102.27305 -6.6065506 103.66842 -5.0578985 L 104.19643 -4.4721502 L 104.47999 -4.8156333 C 104.63582 -5.0045826 104.85448 -5.4045148 104.96598 -5.7043045 C 105.07747 -6.0040764 105.14024 -6.3855916 105.10557 -6.55205 C 105.02569 -6.9355221 104.43596 -7.528113 104.05539 -7.607347 C 103.75866 -7.6691728 102.88227 -7.3155956 102.57768 -7.0110019 z "
         transform="rotate(45)" />
      <path
         id="rect777"
         style="fill:#fabc05;fill-opacity:1;stroke-width:0.305567;stroke-linecap:square;stop-color:#000000"
         d="M 17.05971 120.81152 C 16.666639 120.41844 16.12263 120.17607 15.520248 120.17607 L -14.706996 120.17607 C -15.911762 120.17607 -16.881902 121.14621 -16.881902 122.35098 L -16.881902 152.57822 C -16.881902 153.78299 -15.911762 154.75313 -14.706996 154.75313 L 15.520248 154.75313 C 16.725013 154.75313 17.695153 153.78299 17.695153 152.57822 L 17.695153 122.35098 C 17.695153 121.7486 17.452781 121.20459 17.05971 120.81152 z M 11.413798 133.15023 C 11.600543 133.33114 11.696735 133.47106 11.706489 133.57228 C 11.746144 133.98405 10.824617 136.10785 10.110389 137.25047 L 9.8155049 137.72221 L 8.5753116 136.49225 C 7.1680291 135.09628 6.5633963 134.68588 5.2621613 134.24097 C 4.4028613 133.94713 3.0780702 133.86356 2.8526639 134.08896 C 2.6541474 134.28748 2.7034129 134.82631 3.0017502 135.7238 C 4.1519112 139.18393 4.0044866 143.04532 2.6491319 144.96167 C 2.3044106 145.4491 2.1935366 145.55226 1.7816543 145.76629 C 0.00059555465 146.69355 -2.6395071 146.31392 -4.6984833 144.8345 C -5.3658549 144.355 -7.260721 142.54625 -7.8683938 141.80856 L -7.8691247 141.80856 C -9.0895318 140.32702 -9.4517683 139.4685 -9.237576 138.56484 C -9.0857341 137.92457 -8.3468356 136.69788 -7.4668109 135.6255 C -6.3586046 134.27514 -6.4679059 134.24581 -5.8250348 136.06217 C -4.9984985 138.39755 -4.6378431 139.18346 -4.1131004 139.79407 C -3.3373173 140.69671 -2.1432368 141.37083 -1.6075008 141.20857 C -1.3943146 141.14406 -1.3288316 141.06993 -1.1679155 140.71125 C -0.78172736 139.84787 -0.90067544 138.14385 -1.5903266 134.67252 C -2.1840341 131.68388 -2.2295776 130.89054 -1.8399 130.32088 C -1.616243 129.99337 -0.76296511 129.48855 -0.10640651 129.29482 C 0.46526188 129.12607 1.6682475 129.1499 3.2542468 129.36169 C 5.7830823 129.69941 7.2627019 130.2786 9.7117291 131.88811 C 10.540267 132.43263 11.102554 132.84872 11.413798 133.15023 z "
         transform="rotate(-45)" />
      <path
         id="rect779"
         style="fill:#ea3333;fill-opacity:1;stroke-width:0.305567;stroke-linecap:square;stop-color:#000000"
         d="M -20.344869 83.406937 C -20.73794 83.013865 -21.281949 82.771493 -21.884332 82.771493 L -52.111941 82.771127 C -53.316706 82.771127 -54.286847 83.741268 -54.286847 84.946033 L -54.286481 115.17364 C -54.286481 116.37841 -53.316706 117.34818 -52.111941 117.34818 L -21.884332 117.34855 C -20.679566 117.34855 -19.709426 116.37841 -19.709426 115.17364 L -19.709791 84.946033 C -19.709791 84.34365 -19.951798 83.800008 -20.344869 83.406937 z M -27.925249 95.199735 C -27.36614 95.769949 -26.633439 96.658641 -26.560817 96.884263 C -26.404094 97.371336 -26.463409 98.097863 -26.694557 98.524213 C -26.957189 99.008794 -28.231617 100.61873 -30.964709 103.91836 C -34.584254 108.28826 -35.779925 109.69228 -36.596736 110.53114 C -37.819485 111.78661 -37.98586 111.79902 -39.634734 110.75988 C -40.641623 110.12534 -41.001468 109.80075 -40.977973 109.54819 C -40.968476 109.45049 -40.758195 109.10885 -40.50952 108.78961 C -40.261128 108.47008 -40.057161 108.17852 -40.057146 108.14137 C -40.057047 108.10428 -40.312826 107.95905 -40.625354 107.81872 C -43.0814 106.71575 -44.076729 106.05868 -45.20318 104.79534 C -46.7524 103.05786 -47.254895 101.75884 -47.292946 99.39571 C -47.302616 98.791463 -47.270048 98.672991 -47.001716 98.340778 C -46.574631 97.811262 -43.559714 94.58687 -39.999411 90.850288 L -36.959586 87.659915 L -36.654836 87.650414 C -36.098952 87.633042 -35.896119 87.779304 -34.576032 89.14822 C -33.893896 89.855543 -33.336206 90.465835 -33.336204 90.504248 C -33.336204 90.542658 -34.41075 91.773715 -35.724143 93.240054 C -38.618832 96.471651 -40.40559 98.547063 -40.719264 99.041995 C -41.3128 99.978416 -41.423513 100.72534 -41.106231 101.65795 C -40.901485 102.25976 -40.825173 102.37575 -40.278948 102.92007 C -39.764343 103.43326 -39.599804 103.54662 -39.134126 103.70752 C -38.461348 103.94004 -38.308508 103.95593 -37.764944 103.85185 L -37.332667 103.76891 L -35.894423 102.33066 C -35.103558 101.53966 -33.199761 99.485676 -31.664099 97.765626 C -30.12843 96.045568 -28.823539 94.616684 -28.764225 94.590235 C -28.704969 94.563704 -28.484606 94.688564 -28.274579 94.867945 C -28.174275 94.953603 -28.054274 95.068147 -27.925249 95.199735 z "
         transform="rotate(-45)" />
    </g>
  </g>
</svg>
